<svg xmlns="http://www.w3.org/2000/svg" viewBox="0 0 1500 680">
  <rect width="1500" height="680" fill="white"/>
  <style>
    text { font-family: Arial, Helvetica, sans-serif; }
    .lbl-entity  { font-size: 15px; font-weight: bold; fill: #1e3a5f; }
    .lbl-rel     { font-size: 12px; fill: #1a202c; }
    .lbl-attr    { font-size: 12px; fill: #374151; }
    .lbl-pk      { font-size: 12px; fill: #1e3a5f; font-weight: bold; text-decoration: underline; }
    .lbl-card    { font-size: 15px; font-weight: bold; fill: #1a202c; }
  </style>

  <!-- ── CONNECTOR LINES ── -->
  <line x1="235" y1="380" x2="345" y2="380" stroke="#4a5568" stroke-width="2"/>
  <line x1="515" y1="380" x2="615" y2="380" stroke="#4a5568" stroke-width="2"/>
  <line x1="785" y1="380" x2="900" y2="380" stroke="#4a5568" stroke-width="2"/>
  <line x1="1070" y1="380" x2="1185" y2="380" stroke="#4a5568" stroke-width="2"/>

  <!-- ── CARDINALITY ── -->
  <text x="280"  y="367" text-anchor="middle" class="lbl-card">N</text>
  <text x="562"  y="367" text-anchor="middle" class="lbl-card">1</text>
  <text x="842"  y="367" text-anchor="middle" class="lbl-card">1</text>
  <text x="1128" y="367" text-anchor="middle" class="lbl-card">N</text>

  <!-- ── ENTITIES ── -->
  <rect x="75"   y="355" width="160" height="50" rx="3" fill="#dbeafe" stroke="#1e40af" stroke-width="2"/>
  <text x="155"  y="386" text-anchor="middle" class="lbl-entity">STUDENTS</text>

  <rect x="615"  y="355" width="170" height="50" rx="3" fill="#dbeafe" stroke="#1e40af" stroke-width="2"/>
  <text x="700"  y="386" text-anchor="middle" class="lbl-entity">CLASSROOMS</text>

  <rect x="1185" y="355" width="160" height="50" rx="3" fill="#dbeafe" stroke="#1e40af" stroke-width="2"/>
  <text x="1265" y="386" text-anchor="middle" class="lbl-entity">COURSES</text>

  <!-- ── RELATIONSHIPS ── -->
  <polygon points="430,325 515,380 430,435 345,380" fill="white" stroke="#1e40af" stroke-width="2"/>
  <text x="430" y="375" text-anchor="middle" class="lbl-rel">BELONGS</text>
  <text x="430" y="391" text-anchor="middle" class="lbl-rel">TO</text>

  <polygon points="985,325 1070,380 985,435 900,380" fill="white" stroke="#1e40af" stroke-width="2"/>
  <text x="985" y="384" text-anchor="middle" class="lbl-rel">TEACHES</text>

  <!-- ── ATTRIBUTE LINES ── -->
  <line x1="118"  y1="356" x2="90"   y2="228" stroke="#9ca3af" stroke-width="1.5"/>
  <line x1="200"  y1="356" x2="248"  y2="228" stroke="#9ca3af" stroke-width="1.5"/>
  <line x1="155"  y1="405" x2="155"  y2="529" stroke="#9ca3af" stroke-width="1.5"/>

  <line x1="700"  y1="355" x2="700"  y2="228" stroke="#9ca3af" stroke-width="1.5"/>
  <line x1="648"  y1="405" x2="578"  y2="529" stroke="#9ca3af" stroke-width="1.5"/>
  <line x1="752"  y1="405" x2="822"  y2="529" stroke="#9ca3af" stroke-width="1.5"/>

  <line x1="1215" y1="356" x2="1162" y2="228" stroke="#9ca3af" stroke-width="1.5"/>
  <line x1="1315" y1="356" x2="1362" y2="228" stroke="#9ca3af" stroke-width="1.5"/>
  <line x1="1265" y1="405" x2="1265" y2="529" stroke="#9ca3af" stroke-width="1.5"/>

  <!-- ── ATTRIBUTES ── -->
  <!-- STUDENTS -->
  <ellipse cx="88"  cy="202" rx="82" ry="26" fill="white" stroke="#9ca3af" stroke-width="1.5"/>
  <text x="88"  y="207" text-anchor="middle" class="lbl-pk">id_student</text>

  <ellipse cx="262" cy="202" rx="88" ry="26" fill="white" stroke="#9ca3af" stroke-width="1.5"/>
  <text x="262" y="207" text-anchor="middle" class="lbl-attr">name_student</text>

  <ellipse cx="155" cy="555" rx="78" ry="26" fill="white" stroke="#9ca3af" stroke-width="1.5"/>
  <text x="155" y="560" text-anchor="middle" class="lbl-attr">classroom_id</text>

  <!-- CLASSROOMS -->
  <ellipse cx="700" cy="202" rx="38" ry="26" fill="white" stroke="#9ca3af" stroke-width="1.5"/>
  <text x="700" y="207" text-anchor="middle" class="lbl-pk">id</text>

  <ellipse cx="554" cy="555" rx="72" ry="26" fill="white" stroke="#9ca3af" stroke-width="1.5"/>
  <text x="554" y="560" text-anchor="middle" class="lbl-attr">classroom</text>

  <ellipse cx="846" cy="555" rx="80" ry="26" fill="white" stroke="#9ca3af" stroke-width="1.5"/>
  <text x="846" y="560" text-anchor="middle" class="lbl-attr">description</text>

  <!-- COURSES -->
  <ellipse cx="1148" cy="202" rx="38" ry="26" fill="white" stroke="#9ca3af" stroke-width="1.5"/>
  <text x="1148" y="207" text-anchor="middle" class="lbl-pk">id</text>

  <ellipse cx="1376" cy="202" rx="50" ry="26" fill="white" stroke="#9ca3af" stroke-width="1.5"/>
  <text x="1376" y="207" text-anchor="middle" class="lbl-attr">name</text>

  <ellipse cx="1265" cy="555" rx="78" ry="26" fill="white" stroke="#9ca3af" stroke-width="1.5"/>
  <text x="1265" y="560" text-anchor="middle" class="lbl-attr">classroom_id</text>
</svg>
